<svg id="Layer_1" data-name="Layer 1" xmlns="http://www.w3.org/2000/svg" viewBox="0 0 1206.71 372.54"><defs><style>.cls-1{fill:#fff;}</style></defs><title>yarno_white</title><path class="cls-1" d="M224,227.84c-8,35.1-16.73,69.81-25.78,103.14-6.88,25.31-14.8,51.09-23.6,76.93-4-9.25-8-18.68-11.8-28.22C155.79,362,149.11,344.12,143,326.42s-11.74-35.11-16.72-51.85C121.34,258,117,242.22,113.48,227.7l-1.9-7.78h-70l3.33,12.78A1091.84,1091.84,0,0,0,89.48,367c17.09,42.21,35.74,82.78,55.45,120.7-6.87,14-14.36,24.31-22.29,30.6-8.21,6.48-20.21,9.77-35.69,9.77a57.89,57.89,0,0,1-14.29-1.87,77.85,77.85,0,0,1-12.25-4.06L49,517,36.19,573.61l7.12,3.58a57.37,57.37,0,0,0,8.12,3.07c3.4,1.07,7.15,2,11.14,2.91s8.15,1.58,12.39,2.11a102.28,102.28,0,0,0,12.49.81,132.94,132.94,0,0,0,38.9-5.33,95.47,95.47,0,0,0,32-17,125.16,125.16,0,0,0,25.29-28.43A273.52,273.52,0,0,0,204.75,496c16.62-38.47,32.35-80.43,46.74-124.71C265.8,327.16,279,280.5,290.77,232.55l3.1-12.63h-68Z" transform="translate(-36.19 -213.56)"/><path class="cls-1" d="M688.93,219.87c-4.18-.83-8.75-1.66-13.76-2.5-5.17-.85-10.4-1.54-15.57-2s-10.14-.77-14.41-.77c-20.51,0-39.31,1.8-55.87,5.35a320,320,0,0,0-41.39,11.38l-6.72,2.44V494.29H607V278.78c2.34-.52,5.11-1.13,8.31-1.82a109.73,109.73,0,0,1,23-2.46c12.22,0,22.25.83,29.83,2.46,9.74,2.1,14.34,3.48,16.49,4.26l11.19,4.08,11.84-60.05-8.5-2.85A90.54,90.54,0,0,0,688.93,219.87Z" transform="translate(-36.19 -213.56)"/><path class="cls-1" d="M931.37,251c-9-11.59-21.14-20.69-36-27.05-14.57-6.21-32.84-9.36-54.32-9.36-23,0-43.59,1.53-61.29,4.54-17.39,3-31.62,5.8-42.27,8.47l-7.74,1.93V494.29h65.82V278.19c3.39-.57,7.31-1.1,11.6-1.55,4.56-.47,9.43-.87,14.49-1.18s9.89-.47,14.51-.47c10.74,0,19.71,1.34,26.65,4a31.36,31.36,0,0,1,14.85,11.29c4,5.6,7,13.29,8.79,22.86,2,10.38,3,23.21,3,38.14v143h65.82V341.48a225.11,225.11,0,0,0-5.14-49.65C946.52,276.1,940.21,262.35,931.37,251Z" transform="translate(-36.19 -213.56)"/><path class="cls-1" d="M1233.52,299.22c-6.28-17.62-15.26-33-26.71-45.65a119.1,119.1,0,0,0-41.36-29.63,135.1,135.1,0,0,0-103.83,0,119,119,0,0,0-41.37,29.63,135.45,135.45,0,0,0-26.71,45.66c-6.22,17.47-9.38,36.94-9.38,57.88,0,21.28,3.16,40.85,9.4,58.15a135.88,135.88,0,0,0,26.69,45.38,119.05,119.05,0,0,0,41.37,29.63,135.26,135.26,0,0,0,103.83,0,119.21,119.21,0,0,0,41.37-29.64,135.88,135.88,0,0,0,26.69-45.38c6.24-17.32,9.39-36.88,9.39-58.15C1242.9,336.17,1239.75,316.7,1233.52,299.22Zm-58.4,57.89c0,26.23-5.78,47.06-17.17,61.92-10.94,14.24-25.45,21.16-44.42,21.16s-33.5-6.92-44.41-21.16c-11.4-14.85-17.18-35.68-17.18-61.92s5.78-47.06,17.18-61.93C1080,280.94,1094.56,274,1113.53,274s33.48,6.92,44.4,21.16C1169.34,310,1175.12,330.88,1175.12,357.11Z" transform="translate(-36.19 -213.56)"/><path class="cls-1" d="M507.54,278.94A86.25,86.25,0,0,0,489,244.11c-8.72-9.84-20.26-17.51-34.32-22.81-13.65-5.14-30.38-7.74-49.73-7.74a263.94,263.94,0,0,0-46.24,3.83c-14.59,2.6-24.95,5.31-31.65,8.28L320,228.81,328.28,287l12.13-5c4.87-2,12.66-4,23.17-6A205.24,205.24,0,0,1,401,273c10.17,0,18.34,1.4,24.26,4.17a34.27,34.27,0,0,1,13.46,10.5,40.51,40.51,0,0,1,7,15.68,92.07,92.07,0,0,1,2.19,19.34h0v78.18h0v38.51c-3.33.44-7.05.8-11.15,1-8.1.47-17.52.72-28,.72-15.93,0-28.43-2.7-37.18-8-2.66-1.62-10.74-6.54-10.74-25.24,0-6.49,1.37-11.38,4.18-14.94a34.58,34.58,0,0,1,12.31-9.83A57.32,57.32,0,0,1,395.22,378a160.79,160.79,0,0,1,20.43-1.38c4.37,0,5,.11,8.9.34V320.45l-1.12-.12a92.54,92.54,0,0,0-11.7-.78,197.28,197.28,0,0,0-43.27,4.65,118.13,118.13,0,0,0-37.4,15,78.43,78.43,0,0,0-26.63,28c-6.55,11.6-9.86,25.45-9.86,41.16,0,16.1,2.79,30.21,8.3,41.94a74,74,0,0,0,23.77,29.1A99,99,0,0,0,361.47,495a178.42,178.42,0,0,0,42,4.69c10.2,0,20.74-.43,31.33-1.26s20.17-1.74,28.88-2.71c9-1,17.13-2.09,24.19-3.25s12.5-2,16.43-2.69l8.51-1.43V321A159.59,159.59,0,0,0,507.54,278.94Z" transform="translate(-36.19 -213.56)"/></svg>